<svg width="74" height="109" viewBox="0 0 74 109" fill="none" xmlns="http://www.w3.org/2000/svg">
<path d="M37 94.0372C31.838 94.0372 27.0068 91.5865 22.7099 87.7452C18.411 83.9022 14.5751 78.6065 11.3737 72.7468C4.98055 61.045 1.00001 46.8714 1.00001 37C1.00001 17.1178 17.1178 1.00002 37 1.00002C56.8823 1.00002 73 17.1178 73 37C73 46.8714 69.0195 61.045 62.6263 72.7468C59.4249 78.6065 55.589 83.9022 51.2901 87.7452C46.9932 91.5865 42.162 94.0372 37 94.0372Z" fill="#C92A2A" stroke="#870202" stroke-width="2"/>
<g filter="url(#filter0_f_2258_68)">
<path d="M37.0994 94.6622L34.6364 97.3114C32.3387 99.7829 33.1039 104.281 36.4664 104.565C39.7233 104.841 40.738 100.877 39.0866 98.0564L37.0994 94.6622Z" fill="#C92A2A"/>
</g>
<defs>
<filter id="filter0_f_2258_68" x="29.318" y="90.6622" width="14.5488" height="17.9166" filterUnits="userSpaceOnUse" color-interpolation-filters="sRGB">
<feFlood flood-opacity="0" result="BackgroundImageFix"/>
<feBlend mode="normal" in="SourceGraphic" in2="BackgroundImageFix" result="shape"/>
<feGaussianBlur stdDeviation="2" result="effect1_foregroundBlur_2258_68"/>
</filter>
</defs>
</svg>
