<svg width="41" height="37" viewBox="0 0 41 37" fill="none" xmlns="http://www.w3.org/2000/svg">
<path d="M26.5934 25.402H20.5841H14.492L20.5841 30.456L25.3593 34.9923L26.722 31.1561H31.948L26.5934 25.402Z" fill="#CD0000"/>
<path d="M20.5843 25.402H14.5753L9.22043 31.1561H14.4516L15.8425 34.9923L20.5843 30.456L25.8673 25.402H20.5843Z" fill="#FF80AA"/>
<path d="M20.585 25.402V30.456L25.868 25.402H20.585Z" fill="#FF3377"/>
<path d="M20.5846 27.32C28.2734 27.32 34.5065 21.7095 34.5065 14.7887C34.5065 7.86783 28.2734 2.25737 20.5846 2.25737C12.8958 2.25737 6.66273 7.86783 6.66273 14.7887C6.66273 21.7095 12.8958 27.32 20.5846 27.32Z" fill="#FFE666"/>
<path d="M34.5065 14.7887C34.5065 7.91437 28.2609 2.25737 20.5846 2.25737V27.32C28.2609 27.32 34.5065 21.663 34.5065 14.7887Z" fill="#FABE2C"/>
<path d="M20.5846 6.15742C15.2698 6.15742 10.9464 10.0292 10.9464 14.7887C10.9464 19.5482 15.2698 23.4839 20.5846 23.4839C25.8994 23.4839 30.2228 19.5482 30.2228 14.7887C30.2228 10.0292 25.8994 6.15742 20.5846 6.15742Z" fill="#FF80AA"/>
<path d="M30.2228 14.7887C30.2228 10.0292 25.8994 6.15742 20.5846 6.15742V23.4839C25.8994 23.4839 30.2228 19.5482 30.2228 14.7887Z" fill="#FF3377"/>
<path d="M22.6313 10.9881C21.8688 10.9881 21.165 11.2054 20.5846 11.6063C20.0042 11.2054 19.3004 10.9881 18.5379 10.9881C16.8071 10.9881 15.23 12.4342 15.23 14.0216C15.23 15.5369 16.6659 16.9587 20.0324 18.7746L20.5846 19.0734L21.1368 18.7746C24.5033 16.9586 25.9392 15.5369 25.9392 14.0216C25.9392 12.4342 24.3621 10.9881 22.6313 10.9881Z" fill="#FFE666"/>
<path d="M25.9392 14.0216C25.9392 12.4342 24.3621 10.9881 22.6313 10.9881C21.8688 10.9881 21.165 11.2054 20.5846 11.6063V19.0734L21.1368 18.7746C24.5033 16.9586 25.9392 15.5369 25.9392 14.0216Z" fill="#FABE2C"/>
</svg>
