<svg width="40" height="40" viewBox="0 0 40 40" fill="none" xmlns="http://www.w3.org/2000/svg">
<path d="M17.7952 2.29421C16.2125 2.03186 14.4188 1.73448 12.741 2.42754C11.0633 3.12052 10.0023 4.59713 9.06622 5.89992C8.59747 6.55226 8.15475 7.16846 7.67328 7.64936C7.16031 8.1617 6.5233 8.62383 5.84895 9.11311C4.50172 10.0905 3.10858 11.1011 2.44154 12.7071C1.7745 14.313 2.04164 16.0133 2.29999 17.6575C2.42931 18.4806 2.55152 19.258 2.55053 19.983C2.54962 20.6636 2.42558 21.4121 2.29415 22.2047C2.0318 23.7872 1.73449 25.5811 2.42748 27.2587C3.12046 28.9364 4.59714 29.9974 5.89986 30.9335C6.5522 31.4022 7.1684 31.8449 7.64937 32.3265C8.16171 32.8394 8.62384 33.4764 9.11312 34.1509C10.0905 35.4981 11.1012 36.8912 12.7071 37.5582C14.313 38.2252 16.0133 37.958 17.6575 37.6998C18.4773 37.5709 19.2518 37.4492 19.9743 37.4492H19.983C19.9941 37.4492 20.0055 37.4499 20.0166 37.45L21.4229 19.3914L20.0166 2.55045C19.3362 2.54968 18.5876 2.42557 17.7952 2.29421Z" fill="#FD6717"/>
<path d="M24.9074 37.9999C25.6945 37.9999 26.489 37.8904 27.2588 37.5724C28.9364 36.8793 29.9974 35.4027 30.9335 34.0999C31.4022 33.4476 31.845 32.8314 32.3265 32.3505C32.8394 31.8381 33.4764 31.3761 34.1508 30.8868C35.4981 29.9094 36.8912 28.8988 37.5582 27.2928C38.2252 25.6868 37.9581 23.9866 37.6997 22.3424C37.5704 21.5192 37.4482 20.7418 37.4492 20.0168C37.4501 19.3362 37.5741 18.5877 37.7056 17.7952C37.9679 16.2126 38.2652 14.4188 37.5722 12.7412V12.7411C36.8793 11.0635 35.4026 10.0025 34.0999 9.06642C33.4475 8.59768 32.8313 8.15495 32.3503 7.67335C31.838 7.16037 31.3759 6.52336 30.8866 5.84901C29.9093 4.50164 28.8986 3.10857 27.2927 2.44153C25.6867 1.77449 23.9864 2.04156 22.3422 2.29998C21.5223 2.4288 20.7479 2.55052 20.0253 2.55052C20.0225 2.55052 20.0196 2.55052 20.0167 2.55052V37.4501C20.6884 37.4549 21.4251 37.5764 22.2047 37.7057C23.0611 37.8477 23.9792 37.9999 24.9074 37.9999Z" fill="#FF4340"/>
<path d="M20.0005 6.94434C12.8016 6.94434 6.94476 12.8011 6.94476 20.0001C6.94476 27.1991 12.8016 33.0559 20.0005 33.0559C20.0061 33.0559 20.0117 33.0556 20.0173 33.0556L20.7205 20.6588L20.0173 6.94455C20.0117 6.94448 20.0061 6.94434 20.0005 6.94434Z" fill="#FF4340"/>
<path d="M33.057 20.0001C33.057 12.8067 27.2093 6.95366 20.018 6.94452V33.0556C27.2092 33.0465 33.057 27.1934 33.057 20.0001Z" fill="#CF3634"/>
<path d="M18.9464 11.5031V14.5034H20.0011L20.7043 13.099L20.0011 11.5031H18.9464Z" fill="#FDAE02"/>
<path d="M20.0002 11.5031H21.0549V14.5034H20.0002V11.5031Z" fill="#FD8C02"/>
<path d="M17.6939 16.7522C16.5332 15.583 14.7166 15.3229 13.2525 16.1824C11.5932 17.1563 10.9716 19.265 11.8374 20.9832L14.7731 26.809H17.5724L17.6939 16.7522Z" fill="#FDAE02"/>
<path d="M26.7504 16.1825C25.2861 15.323 23.4695 15.5832 22.309 16.7523L22.6831 26.8091H25.2298L28.1655 20.9833C29.0313 19.2652 28.4097 17.1563 26.7504 16.1825Z" fill="#FD8C02"/>
<path d="M20.0007 13.4486C18.7556 13.4486 17.5825 13.9956 16.7823 14.9496C15.9821 15.9034 15.6473 17.1538 15.8647 18.3853L17.3978 26.809H20.0007L20.7039 20.1756L20.0007 13.4486Z" fill="#FD8C02"/>
<path d="M24.1379 18.3798C24.3544 17.1537 24.0196 15.9034 23.2194 14.9495C22.4191 13.9956 21.2462 13.4486 20.001 13.4486V26.809H22.6824L24.1379 18.3798Z" fill="#FD6717"/>
</svg>
